<svg width="16" height="19" viewBox="0 0 16 19" fill="none" xmlns="http://www.w3.org/2000/svg">
<path d="M9.75155 6.33881L9.60482 7.07432L9.75155 6.33881ZM10.9524 7.05493C10.7453 7.41365 10.8682 7.87234 11.2269 8.07945C11.5856 8.28656 12.0443 8.16365 12.2514 7.80493L10.9524 7.05493ZM0.803848 11.9282L0.342597 11.3368C0.145908 11.4902 0.0383573 11.7314 0.0556536 11.9802C0.0729489 12.229 0.212828 12.453 0.428848 12.5777L0.803848 11.9282ZM11.1962 17.9282L10.8212 18.5777C11.0372 18.7024 11.3011 18.7116 11.5252 18.6022C11.7494 18.4927 11.9044 18.279 11.9389 18.032L11.1962 17.9282ZM5.47027 8.64572L11.7057 12.2457L12.4557 10.9467L6.22027 7.34668L5.47027 8.64572ZM12.7835 11.8579C13.0271 11.2036 13.2382 10.1578 13.0904 9.08214C12.9394 7.98244 12.402 6.81009 11.1157 6.06748L10.3657 7.36651C11.158 7.8239 11.5002 8.52796 11.6044 9.28625C11.7118 10.0686 11.5536 10.8623 11.3778 11.3345L12.7835 11.8579ZM11.1157 6.06748C10.714 5.83552 10.3056 5.68456 9.89828 5.60331L9.60482 7.07432C9.84874 7.12298 10.1032 7.21495 10.3657 7.36651L11.1157 6.06748ZM9.89828 5.60331C8.82365 5.38892 7.83044 5.67142 7.04783 6.08414C6.26814 6.49533 5.64439 7.06207 5.26721 7.51835L6.42334 8.47405C6.68958 8.15196 7.16296 7.71924 7.74755 7.41094C8.32923 7.10418 8.96744 6.94717 9.60482 7.07432L9.89828 5.60331ZM10.4011 6.71381L13.1513 1.95032L11.8522 1.20032L9.10203 5.96381L10.4011 6.71381ZM13.1513 1.95032C13.1845 1.8928 13.2205 1.82406 13.2429 1.7824C13.2695 1.73269 13.2911 1.6939 13.3125 1.6596C13.3578 1.58674 13.3792 1.57245 13.3739 1.57627C13.3681 1.58037 13.356 1.5875 13.3395 1.59247C13.3227 1.59754 13.314 1.59656 13.3194 1.59683C13.3355 1.59762 13.4294 1.60837 13.625 1.72131L14.375 0.422274C14.051 0.23522 13.7233 0.114806 13.3928 0.0986245C13.0435 0.0815199 12.7423 0.183777 12.5012 0.356221C12.2767 0.516819 12.1311 0.718857 12.0388 0.867234C11.9914 0.94355 11.9515 1.0166 11.9211 1.07314C11.8865 1.13773 11.87 1.16963 11.8522 1.20032L13.1513 1.95032ZM13.625 1.72131C13.8392 1.84499 13.9206 1.92877 13.9448 1.95991C13.9562 1.97456 13.9313 1.94274 13.9318 1.88614C13.9322 1.85263 13.9424 1.86019 13.9028 1.94131C13.8842 1.97926 13.8599 2.02337 13.8263 2.08087C13.8031 2.12065 13.7453 2.21749 13.7125 2.27432L15.0115 3.02432C15.0637 2.93394 15.1742 2.75586 15.2504 2.60009C15.333 2.43106 15.4291 2.18882 15.4318 1.90007C15.438 1.23014 14.9691 0.765257 14.375 0.422274L13.625 1.72131ZM13.7125 2.27432L10.9524 7.05493L12.2514 7.80493L15.0115 3.02432L13.7125 2.27432ZM5.38402 7.4048L0.342597 11.3368L1.2651 12.5196L6.30652 8.58759L5.38402 7.4048ZM11.9389 18.032L12.8234 11.7L11.3379 11.4924L10.4534 17.8244L11.9389 18.032ZM0.428848 12.5777L3.02692 14.0777L3.77692 12.7787L1.17885 11.2787L0.428848 12.5777ZM3.02692 14.0777L5.625 15.5777L6.375 14.2787L3.77692 12.7787L3.02692 14.0777ZM5.625 15.5777L8.22308 17.0777L8.97308 15.7787L6.375 14.2787L5.625 15.5777ZM8.22308 17.0777L10.8212 18.5777L11.5712 17.2787L8.97308 15.7787L8.22308 17.0777Z" fill="black"/>
</svg>
